<svg width="149" height="149" viewBox="0 0 149 149" fill="none" xmlns="http://www.w3.org/2000/svg">
<path d="M64.07 87.91L48.0525 71.8925C46.6867 70.5267 44.9483 69.8438 42.8375 69.8438C40.7267 69.8438 38.9883 70.5267 37.6225 71.8925C36.2567 73.2583 35.5737 74.9967 35.5737 77.1075C35.5737 79.2183 36.2567 80.9567 37.6225 82.3225L58.855 103.555C60.345 105.045 62.0833 105.79 64.07 105.79C66.0567 105.79 67.795 105.045 69.285 103.555L111.377 61.4625C112.743 60.0967 113.426 58.3583 113.426 56.2475C113.426 54.1367 112.743 52.3983 111.377 51.0325C110.012 49.6667 108.273 48.9837 106.162 48.9837C104.052 48.9837 102.313 49.6667 100.948 51.0325L64.07 87.91ZM74.5 149C64.1942 149 54.5092 147.044 45.445 143.133C36.3808 139.222 28.4962 133.914 21.7912 127.209C15.0862 120.504 9.77812 112.619 5.86688 103.555C1.95562 94.4908 0 84.8058 0 74.5C0 64.1942 1.95562 54.5092 5.86688 45.445C9.77812 36.3808 15.0862 28.4962 21.7912 21.7912C28.4962 15.0862 36.3808 9.77812 45.445 5.86688C54.5092 1.95562 64.1942 0 74.5 0C84.8058 0 94.4908 1.95562 103.555 5.86688C112.619 9.77812 120.504 15.0862 127.209 21.7912C133.914 28.4962 139.222 36.3808 143.133 45.445C147.044 54.5092 149 64.1942 149 74.5C149 84.8058 147.044 94.4908 143.133 103.555C139.222 112.619 133.914 120.504 127.209 127.209C120.504 133.914 112.619 139.222 103.555 143.133C94.4908 147.044 84.8058 149 74.5 149Z" fill="#478A47"/>
</svg>
