<svg width="109" height="112" viewBox="0 0 109 112" fill="none" xmlns="http://www.w3.org/2000/svg">
<path d="M0 14C0 6.27813 6.27813 0 14 0H49V28C49 31.8719 52.1281 35 56 35H84V66.5H38.5C30.7781 66.5 24.5 72.7781 24.5 80.5V112H14C6.27813 112 0 105.722 0 98V14ZM84 28H56V0L84 28ZM38.5 77H45.5C52.2594 77 57.75 82.4906 57.75 89.25C57.75 96.0094 52.2594 101.5 45.5 101.5H42V108.5C42 110.425 40.425 112 38.5 112C36.575 112 35 110.425 35 108.5V98V80.5C35 78.575 36.575 77 38.5 77ZM45.5 94.5C48.4094 94.5 50.75 92.1594 50.75 89.25C50.75 86.3406 48.4094 84 45.5 84H42V94.5H45.5ZM66.5 77H73.5C79.2969 77 84 81.7031 84 87.5V101.5C84 107.297 79.2969 112 73.5 112H66.5C64.575 112 63 110.425 63 108.5V80.5C63 78.575 64.575 77 66.5 77ZM73.5 105C75.425 105 77 103.425 77 101.5V87.5C77 85.575 75.425 84 73.5 84H70V105H73.5ZM91 80.5C91 78.575 92.575 77 94.5 77H105C106.925 77 108.5 78.575 108.5 80.5C108.5 82.425 106.925 84 105 84H98V91H105C106.925 91 108.5 92.575 108.5 94.5C108.5 96.425 106.925 98 105 98H98V108.5C98 110.425 96.425 112 94.5 112C92.575 112 91 110.425 91 108.5V94.5V80.5Z" fill="#2478A2"/>
</svg>
